<svg xmlns="http://www.w3.org/2000/svg" id="Capa_1" enable-background="new 0 0 512.001 512.001" height="512" viewBox="0 0 512.001 512.001" width="512"><g><g fill="#fcfcfc"><path d="m34.985 277.856-26.27-14.488 16.87-30.587c13.49-24.459 37.979-41.888 65.509-46.622 17.659-3.036 33.222-13.521 42.698-28.768l24.412-39.276 25.479 15.836-24.412 39.276c-13.998 22.521-36.994 38.01-63.093 42.498-18.627 3.203-35.197 14.995-44.324 31.544z" fill="#8ab7f5"/><path d="m16.372 393.37-10.715-28.022 37.063-14.173c19.554-7.477 33.449-25.968 34.577-46.012 1.108-19.699 9.744-38.572 24.316-53.144 14.571-14.57 33.446-23.205 53.146-24.313 21.031-1.183 41.145-14.702 51.242-34.442l15.46-30.226 26.709 13.662-15.46 30.226c-14.859 29.049-44.795 48.963-76.266 50.733-25.681 1.445-47.75 23.512-49.195 49.189-1.78 31.646-23.407 60.72-53.814 72.348z" fill="#8ab7f5"/><path d="m146.664 506.344-28.021-10.717 14.174-37.06c11.629-30.405 40.705-52.029 72.353-53.81 25.681-1.444 47.75-23.512 49.194-49.189 1.771-31.469 21.687-61.402 50.738-76.26l30.228-15.459 13.66 26.709-30.228 15.459c-19.742 10.097-33.263 30.208-34.445 51.236-1.109 19.699-9.744 38.572-24.316 53.144-14.571 14.57-33.445 23.205-53.146 24.313-20.047 1.127-38.54 15.021-46.018 34.573z" fill="#8ab7f5"/><path d="m21.172 512.001-21.172-21.254 20.02-19.942c17.214-17.147 37.681-31.146 59.187-40.483 26-11.291 46.276-37.387 49.306-63.46 4.278-36.814 31.316-72.006 67.28-87.568 18.079-7.823 35.318-19.641 49.852-34.174l38.687-38.685 21.213 21.213-38.688 38.686c-17.182 17.181-37.635 31.183-59.15 40.493-26.048 11.271-46.36 37.383-49.395 63.498-4.271 36.757-31.26 71.927-67.157 87.515-18.102 7.859-35.379 19.693-49.964 34.221z" fill="#8ab7f5"/><path d="m248.652 503.286-14.486-26.27 30.589-16.868c16.551-9.127 28.344-25.695 31.547-44.32 4.488-26.097 19.979-49.092 42.502-63.088l39.28-24.41 15.834 25.48-39.28 24.41c-15.247 9.476-25.733 25.036-28.77 42.692-4.734 27.528-22.165 52.017-46.627 65.505z" fill="#8ab7f5"/><path d="m508.19 243.351h-.01c.3-1.52-59.28-61.1-119.08-120.45-60.11-59.66-120.45-119.09-120.45-119.08v-.01c64.4-12.6 133.72 6.04 183.61 55.93s68.53 119.21 55.93 183.61z" fill="#8ab7f5"/></g><path d="m508.19 243.351h-.01c.3-1.52-59.28-61.1-119.08-120.45l63.16-63.16c49.89 49.89 68.53 119.21 55.93 183.61z" fill="#1374e9"/><path d="m508.18 243.351h.01c-7.53 38.42-26.17 75.1-55.93 104.87-79.66 79.66-88.62-40.54-168.28-120.2s-199.86-88.62-120.2-168.28c29.77-29.76 66.45-48.4 104.87-55.93v.01c25.93-5.11 50.89 12.43 54.86 38.56h.01c3.45 22.68 22.95 39.44 45.89 39.44 16.78 0 31.97 6.8 42.97 17.8s17.8 26.19 17.8 42.97c.04 23.38 17.5 42.56 39.44 45.89 23.07 3.51 39.45 23.38 39.45 45.84 0 2.97-.29 5.99-.89 9.03z" fill="#1374e9"/><path d="m508.18 243.351h.01c-7.53 38.42-26.17 75.1-55.93 104.87-79.66 79.66-88.62-40.54-168.28-120.2l128.4-128.4c11 11 17.8 26.19 17.8 42.97.04 23.38 17.5 42.56 39.44 45.89 23.07 3.51 39.45 23.38 39.45 45.84 0 2.97-.29 5.99-.89 9.03z" fill="#0b57b3"/><path d="m380.07 153.151-21.22 21.21-10.6-10.6-10.61-10.61 21.21-21.22 10.61 10.61z" fill="#fcfcfc"/><path d="m380.07 153.151-21.22 21.21-10.6-10.6 21.21-21.22z" fill="#1374e9"/><path d="m279.948 116.846h30v30h-30z" fill="#fcfcfc" transform="matrix(.707 -.707 .707 .707 -6.844 247.17)"/><path d="m365.155 202.053h30v30h-30z" fill="#1374e9" transform="matrix(.707 -.707 .707 .707 -42.132 332.393)"/></g></svg>